<svg width="56" height="56" viewBox="0 0 56 56" fill="none" xmlns="http://www.w3.org/2000/svg">
<g opacity="0.7">
<rect opacity="0.01" width="56" height="56" fill="#AFAFAF"/>
<path d="M34.3534 19.1091L19.5041 33.9583C19.2228 34.2396 19.0659 34.6223 19.0679 35.0221C19.0699 35.4219 19.2306 35.8061 19.5147 36.0902C19.7989 36.3744 20.1831 36.5351 20.5829 36.5371C20.9827 36.5391 21.3654 36.3822 21.6467 36.1009L36.4959 21.2516C36.7772 20.9703 36.9341 20.5877 36.9321 20.1878C36.9302 19.788 36.7694 19.4038 36.4853 19.1197C36.2012 18.8356 35.817 18.6748 35.4172 18.6728C35.0173 18.6709 34.6347 18.8278 34.3534 19.1091Z" fill="#333333"/>
<path d="M19.5042 21.2516L34.3534 36.1008C34.6347 36.3821 35.0174 36.5391 35.4172 36.5371C35.817 36.5351 36.2012 36.3744 36.4853 36.0902C36.7694 35.8061 36.9302 35.4219 36.9322 35.0221C36.9342 34.6223 36.7772 34.2396 36.4959 33.9583L21.6467 19.1091C21.3654 18.8278 20.9827 18.6708 20.5829 18.6728C20.1831 18.6748 19.7989 18.8356 19.5148 19.1197C19.2306 19.4038 19.0699 19.788 19.0679 20.1878C19.0659 20.5876 19.2229 20.9703 19.5042 21.2516Z" fill="#333333"/>
</g>
</svg>
