<svg width="153" height="200" viewBox="0 0 153 200" fill="none" xmlns="http://www.w3.org/2000/svg">
<g opacity="0.4">
<path d="M97.1429 27.8196L55.4135 51.912L55.4136 3.72713L97.1429 27.8196Z" fill="white"/>
<path d="M55.3384 51.8797L97.0677 27.7873L97.0677 75.9721L55.3384 51.8797Z" fill="white"/>
<path d="M138.647 51.8796L96.9172 75.9721L96.9172 27.7872L138.647 51.8796Z" fill="white"/>
<path d="M96.8423 75.9398L138.572 51.8473L138.572 100.032L96.8423 75.9398Z" fill="white"/>
</g>
<g opacity="0.56">
<path d="M13.8346 27.8197L55.5639 3.72732L55.5639 51.9121L13.8346 27.8197Z" fill="white"/>
<path d="M13.8346 75.9399L55.5639 51.8474L55.5639 100.032L13.8346 75.9399Z" fill="white"/>
<path d="M13.8346 172.18L55.5639 148.088L55.5639 196.273L13.8346 172.18Z" fill="white"/>
<path d="M55.6391 148.12L13.9098 172.213L13.9098 124.028L55.6391 148.12Z" fill="white"/>
<path d="M55.6391 100L13.9098 124.092L13.9098 75.9077L55.6391 100Z" fill="white"/>
<path d="M55.6391 51.8797L13.9098 75.9722L13.9098 27.7872L55.6391 51.8797Z" fill="white"/>
<path d="M13.8346 124.06L55.5639 99.9677L55.5639 148.152L13.8346 124.06Z" fill="white"/>
</g>
<path d="M13.8346 124.06L55.5639 99.9677L55.5639 148.153L13.8346 124.06Z" fill="#EA6645"/>
<path d="M97.1429 124.06L55.4135 148.152L55.4135 99.9675L97.1429 124.06Z" fill="#EA6645"/>
<path d="M55.3384 99.9999L97.0678 75.9075L97.0678 124.092L55.3384 99.9999Z" fill="#EA6645"/>
<path d="M55.3384 148.12L97.0678 124.028L97.0678 172.213L55.3384 148.12Z" fill="#EA6645"/>
<path d="M96.8423 75.9399L138.572 51.8474L138.572 100.032L96.8423 75.9399Z" fill="#EA6645"/>
<path d="M138.647 99.9999L96.9172 124.092L96.9172 75.9075L138.647 99.9999Z" fill="#EA6645"/>
<path d="M96.8423 172.18L138.572 148.088L138.572 196.273L96.8423 172.18Z" fill="#EA6645"/>
<path d="M138.647 148.12L96.9172 172.213L96.9172 124.028L138.647 148.12Z" fill="#EA6645"/>
</svg>
