<svg width="56" height="56" viewBox="0 0 56 56" fill="none" xmlns="http://www.w3.org/2000/svg">
<g opacity="0.7">
<rect opacity="0.01" width="56" height="56" fill="#AFAFAF"/>
<path d="M38.5 26.09H17.5C17.1022 26.09 16.7206 26.2496 16.4393 26.5337C16.158 26.8178 16 27.2032 16 27.605C16 28.0068 16.158 28.3921 16.4393 28.6762C16.7206 28.9603 17.1022 29.12 17.5 29.12H38.5C38.8978 29.12 39.2794 28.9603 39.5607 28.6762C39.842 28.3921 40 28.0068 40 27.605C40 27.2032 39.842 26.8178 39.5607 26.5337C39.2794 26.2496 38.8978 26.09 38.5 26.09Z" fill="#AFAFAF"/>
<path d="M38.5 35.1799H17.5C17.1022 35.1799 16.7206 35.3395 16.4393 35.6237C16.158 35.9078 16 36.2931 16 36.6949C16 37.0967 16.158 37.4821 16.4393 37.7662C16.7206 38.0503 17.1022 38.2099 17.5 38.2099H38.5C38.8978 38.2099 39.2794 38.0503 39.5607 37.7662C39.842 37.4821 40 37.0967 40 36.6949C40 36.2931 39.842 35.9078 39.5607 35.6237C39.2794 35.3395 38.8978 35.1799 38.5 35.1799Z" fill="#AFAFAF"/>
<path d="M38.5 17H17.5C17.1022 17 16.7206 17.1596 16.4393 17.4437C16.158 17.7279 16 18.1132 16 18.515C16 18.9168 16.158 19.3021 16.4393 19.5863C16.7206 19.8704 17.1022 20.03 17.5 20.03H38.5C38.8978 20.03 39.2794 19.8704 39.5607 19.5863C39.842 19.3021 40 18.9168 40 18.515C40 18.1132 39.842 17.7279 39.5607 17.4437C39.2794 17.1596 38.8978 17 38.5 17Z" fill="#AFAFAF"/>
</g>
</svg>
