<svg width="56" height="56" viewBox="0 0 56 56" fill="none" xmlns="http://www.w3.org/2000/svg">
<g opacity="0.7">
<rect opacity="0.01" width="56" height="56" fill="#AFAFAF"/>
<path d="M37.905 21.5951C38.3641 21.5931 38.804 21.4109 39.13 21.0876L40.3725 19.8451C40.5557 19.6882 40.7045 19.4951 40.8095 19.278C40.9146 19.0609 40.9736 18.8244 40.9829 18.5834C40.9922 18.3424 40.9516 18.1021 40.8636 17.8775C40.7756 17.6529 40.6422 17.449 40.4716 17.2784C40.3011 17.1079 40.0971 16.9744 39.8726 16.8864C39.648 16.7985 39.4077 16.7578 39.1667 16.7672C38.9256 16.7765 38.6892 16.8355 38.4721 16.9405C38.2549 17.0456 38.0619 17.1944 37.905 17.3776L36.75 18.6201C36.4241 18.9479 36.2411 19.3915 36.2411 19.8538C36.2411 20.3161 36.4241 20.7597 36.75 21.0876C37.0585 21.3944 37.4703 21.5754 37.905 21.5951ZM28 17.5001C28.4641 17.5001 28.9092 17.3157 29.2374 16.9875C29.5656 16.6593 29.75 16.2142 29.75 15.7501V14C29.75 13.5359 29.5656 13.0908 29.2374 12.7626C28.9092 12.4344 28.4641 12.25 28 12.25C27.5359 12.25 27.0908 12.4344 26.7626 12.7626C26.4344 13.0908 26.25 13.5359 26.25 14V15.7501C26.25 16.2142 26.4344 16.6593 26.7626 16.9875C27.0908 17.3157 27.5359 17.5001 28 17.5001ZM14 28.0001H12.25C11.7859 28.0001 11.3408 28.1844 11.0126 28.5126C10.6844 28.8408 10.5 29.2859 10.5 29.7501C10.5 30.2142 10.6844 30.6593 11.0126 30.9875C11.3408 31.3157 11.7859 31.5001 12.25 31.5001H14C14.4641 31.5001 14.9092 31.3157 15.2374 30.9875C15.5656 30.6593 15.75 30.2142 15.75 29.7501C15.75 29.2859 15.5656 28.8408 15.2374 28.5126C14.9092 28.1844 14.4641 28.0001 14 28.0001ZM16.87 21.0876C17.196 21.4109 17.6359 21.5931 18.095 21.5951C18.3253 21.5964 18.5536 21.5522 18.7668 21.4651C18.9801 21.3781 19.174 21.2497 19.3375 21.0876C19.6634 20.7597 19.8464 20.3161 19.8464 19.8538C19.8464 19.3915 19.6634 18.9479 19.3375 18.6201L18.095 17.3776C17.7602 17.0909 17.3296 16.941 16.8892 16.9581C16.4487 16.9751 16.0309 17.1576 15.7193 17.4693C15.4076 17.781 15.225 18.1988 15.208 18.6392C15.191 19.0796 15.3408 19.5103 15.6275 19.8451L16.87 21.0876ZM43.75 28.0001H42C41.5359 28.0001 41.0907 28.1844 40.7626 28.5126C40.4344 28.8408 40.25 29.2859 40.25 29.7501C40.25 30.2142 40.4344 30.6593 40.7626 30.9875C41.0907 31.3157 41.5359 31.5001 42 31.5001H43.75C44.2141 31.5001 44.6592 31.3157 44.9874 30.9875C45.3156 30.6593 45.5 30.2142 45.5 29.7501C45.5 29.2859 45.3156 28.8408 44.9874 28.5126C44.6592 28.1844 44.2141 28.0001 43.75 28.0001ZM26.25 40.2501H21C20.5359 40.2501 20.0908 40.4344 19.7626 40.7626C19.4344 41.0908 19.25 41.5359 19.25 42.0001C19.25 42.4642 19.4344 42.9093 19.7626 43.2375C20.0908 43.5657 20.5359 43.7501 21 43.7501H26.25C26.7141 43.7501 27.1592 43.5657 27.4874 43.2375C27.8156 42.9093 28 42.4642 28 42.0001C28 41.5359 27.8156 41.0908 27.4874 40.7626C27.1592 40.4344 26.7141 40.2501 26.25 40.2501ZM38.5 33.2501H36.96C37.402 32.1362 37.6277 30.9484 37.625 29.7501C37.625 27.1973 36.6109 24.7492 34.8059 22.9441C33.0009 21.1391 30.5527 20.1251 28 20.1251C25.4473 20.1251 22.9991 21.1391 21.1941 22.9441C19.3891 24.7492 18.375 27.1973 18.375 29.7501C18.3723 30.9484 18.598 32.1362 19.04 33.2501H17.5C17.0359 33.2501 16.5908 33.4344 16.2626 33.7626C15.9344 34.0908 15.75 34.5359 15.75 35.0001C15.75 35.4642 15.9344 35.9093 16.2626 36.2375C16.5908 36.5657 17.0359 36.7501 17.5 36.7501H38.5C38.9641 36.7501 39.4093 36.5657 39.7374 36.2375C40.0656 35.9093 40.25 35.4642 40.25 35.0001C40.25 34.5359 40.0656 34.0908 39.7374 33.7626C39.4093 33.4344 38.9641 33.2501 38.5 33.2501ZM32.9875 33.2501H23.0125C22.2773 32.2307 21.8795 31.0069 21.875 29.7501C21.875 28.1256 22.5203 26.5677 23.669 25.419C24.8176 24.2704 26.3755 23.6251 28 23.6251C29.6245 23.6251 31.1824 24.2704 32.331 25.419C33.4797 26.5677 34.125 28.1256 34.125 29.7501C34.1205 31.0069 33.7227 32.2307 32.9875 33.2501ZM35 40.2501H33.25C32.7859 40.2501 32.3408 40.4344 32.0126 40.7626C31.6844 41.0908 31.5 41.5359 31.5 42.0001C31.5 42.4642 31.6844 42.9093 32.0126 43.2375C32.3408 43.5657 32.7859 43.7501 33.25 43.7501H35C35.4641 43.7501 35.9093 43.5657 36.2374 43.2375C36.5656 42.9093 36.75 42.4642 36.75 42.0001C36.75 41.5359 36.5656 41.0908 36.2374 40.7626C35.9093 40.4344 35.4641 40.2501 35 40.2501Z" fill="#AFAFAF"/>
</g>
</svg>
