<svg width="55" height="56" viewBox="0 0 55 56" fill="none" xmlns="http://www.w3.org/2000/svg">
<g opacity="0.5">
<rect opacity="0.01" width="55" height="56" fill="#333333"/>
<path d="M25.7812 40.0965H20.625C20.1692 40.0965 19.732 40.2809 19.4097 40.6091C19.0873 40.9373 18.9062 41.3824 18.9062 41.8465C18.9062 42.3106 19.0873 42.7557 19.4097 43.0839C19.732 43.4121 20.1692 43.5965 20.625 43.5965H25.7812C26.2371 43.5965 26.6743 43.4121 26.9966 43.0839C27.3189 42.7557 27.5 42.3106 27.5 41.8465C27.5 41.3824 27.3189 40.9373 26.9966 40.6091C26.6743 40.2809 26.2371 40.0965 25.7812 40.0965ZM41.25 33.0965H39.2563C40.2451 31.5245 40.9224 29.7707 41.25 27.934C41.2997 27.6344 41.272 27.3268 41.1695 27.0414C41.0671 26.7561 40.8934 26.5028 40.6656 26.3065C40.4346 26.0995 40.1532 25.9594 39.8509 25.9009C39.5486 25.8424 39.2364 25.8677 38.9469 25.974C37.8841 26.3423 36.7695 26.5315 35.6469 26.534C32.9023 26.5341 30.2685 25.4313 28.3181 23.4651C26.3678 21.4989 25.2584 18.8284 25.2313 16.034C25.2469 15.4472 25.3043 14.8623 25.4031 14.284C25.4477 13.9856 25.4158 13.6805 25.3104 13.3984C25.205 13.1163 25.0297 12.8668 24.8016 12.674C24.5688 12.4699 24.2867 12.3331 23.9844 12.2777C23.6821 12.2223 23.3708 12.2504 23.0828 12.359C20.3827 13.3078 18.0367 15.0833 16.3659 17.4422C14.6952 19.8012 13.7815 22.6283 13.75 25.5365C13.7517 28.2173 14.5093 30.8413 15.9328 33.0965H13.75C13.2942 33.0965 12.857 33.2809 12.5347 33.6091C12.2123 33.9373 12.0313 34.3824 12.0312 34.8465C12.0312 35.3106 12.2123 35.7558 12.5347 36.0839C12.857 36.4121 13.2942 36.5965 13.75 36.5965H41.25C41.7058 36.5965 42.143 36.4121 42.4653 36.0839C42.7877 35.7558 42.9688 35.3106 42.9688 34.8465C42.9688 34.3824 42.7877 33.9373 42.4653 33.6091C42.143 33.2809 41.7058 33.0965 41.25 33.0965ZM34.8563 33.0965H20.3328C19.2113 32.0016 18.3472 30.6629 17.8052 29.1803C17.2631 27.6977 17.0572 26.1095 17.2026 24.5345C17.348 22.9594 17.8411 21.4382 18.6451 20.0844C19.449 18.7306 20.543 17.5793 21.8453 16.7165C22.043 20.3162 23.587 23.7022 26.1602 26.1789C28.7333 28.6557 32.1403 30.0352 35.6812 30.034C36.1335 30.06 36.5868 30.06 37.0391 30.034C36.497 31.1794 35.7577 32.2167 34.8563 33.0965ZM34.375 40.0965H32.6562C32.2004 40.0965 31.7632 40.2809 31.4409 40.6091C31.1186 40.9373 30.9375 41.3824 30.9375 41.8465C30.9375 42.3106 31.1186 42.7557 31.4409 43.0839C31.7632 43.4121 32.2004 43.5965 32.6562 43.5965H34.375C34.8308 43.5965 35.268 43.4121 35.5903 43.0839C35.9127 42.7557 36.0938 42.3106 36.0938 41.8465C36.0938 41.3824 35.9127 40.9373 35.5903 40.6091C35.268 40.2809 34.8308 40.0965 34.375 40.0965Z" fill="#333333"/>
</g>
</svg>
