<svg width="32" height="32" viewBox="0 0 32 32" fill="none" xmlns="http://www.w3.org/2000/svg">
<path d="M31.2931 19.3055V30.6134H24.7374V20.0629C24.7374 17.4125 23.7892 15.6038 21.4164 15.6038C19.6049 15.6038 18.5269 16.8227 18.0527 18.0019C17.8798 18.4235 17.8352 19.0102 17.8352 19.6003V30.6135H11.2775C11.2775 30.6135 11.3658 12.7444 11.2775 10.893H17.8345V13.6883C17.8212 13.7092 17.804 13.7318 17.7915 13.752H17.8345V13.6883C18.7058 12.3465 20.2616 10.4297 23.7441 10.4297C28.0586 10.4296 31.2931 13.2482 31.2931 19.3055ZM4.41779 1.38666C2.17438 1.38666 0.707001 2.85809 0.707001 4.79316C0.707001 6.68607 2.13192 8.20216 4.33075 8.20216H4.37455C6.66142 8.20216 8.08364 6.68636 8.08364 4.79316C8.04047 2.85809 6.66135 1.38666 4.41779 1.38666ZM1.0964 30.6134H7.65171V10.8929H1.0964V30.6134Z" fill="black"/>
</svg>
