<svg width="153" height="200" viewBox="0 0 153 200" fill="none" xmlns="http://www.w3.org/2000/svg">
<g opacity="0.48">
<path d="M97.1428 27.8196L55.4135 51.912L55.4135 3.72713L97.1428 27.8196Z" fill="#333333"/>
<path d="M55.3383 51.8797L97.0677 27.7873L97.0677 75.9721L55.3383 51.8797Z" fill="#333333"/>
<path d="M138.647 51.8797L96.9173 75.9721L96.9173 27.7873L138.647 51.8797Z" fill="#333333"/>
<path d="M96.8421 75.9399L138.571 51.8474L138.571 100.032L96.8421 75.9399Z" fill="#333333"/>
</g>
<g opacity="0.32">
<path d="M13.8346 27.8195L55.5639 3.72712L55.5639 51.912L13.8346 27.8195Z" fill="#333333"/>
<path d="M13.8346 75.9399L55.5639 51.8474L55.5639 100.032L13.8346 75.9399Z" fill="#333333"/>
<path d="M13.8346 172.18L55.5639 148.088L55.5639 196.273L13.8346 172.18Z" fill="#333333"/>
<path d="M55.6391 148.12L13.9098 172.213L13.9098 124.028L55.6391 148.12Z" fill="#333333"/>
<path d="M55.6391 100L13.9098 124.092L13.9098 75.9076L55.6391 100Z" fill="#333333"/>
<path d="M55.6391 51.8797L13.9098 75.9721L13.9098 27.7873L55.6391 51.8797Z" fill="#333333"/>
<path d="M13.8346 124.06L55.5639 99.9677L55.5639 148.153L13.8346 124.06Z" fill="#333333"/>
</g>
<path d="M13.8346 124.06L55.5639 99.9677L55.5639 148.153L13.8346 124.06Z" fill="#EA6645"/>
<path d="M97.1429 124.06L55.4135 148.153L55.4136 99.9677L97.1429 124.06Z" fill="#EA6645"/>
<path d="M55.3384 100L97.0677 75.9076L97.0677 124.092L55.3384 100Z" fill="#EA6645"/>
<path d="M55.3384 148.12L97.0677 124.028L97.0677 172.213L55.3384 148.12Z" fill="#EA6645"/>
<path d="M96.8421 75.9399L138.571 51.8474L138.571 100.032L96.8421 75.9399Z" fill="#EA6645"/>
<path d="M138.647 100L96.9173 124.092L96.9173 75.9076L138.647 100Z" fill="#EA6645"/>
<path d="M96.8421 172.18L138.571 148.088L138.571 196.273L96.8421 172.18Z" fill="#EA6645"/>
<path d="M138.647 148.12L96.9173 172.213L96.9173 124.028L138.647 148.12Z" fill="#EA6645"/>
</svg>
