<svg width="32" height="32" viewBox="0 0 32 32" fill="none" xmlns="http://www.w3.org/2000/svg">
<g clip-path="url(#clip0)">
<path d="M32 6.07883C30.8223 6.60072 29.5585 6.95464 28.2307 7.11265C29.5863 6.30077 30.6241 5.01309 31.1161 3.48335C29.8443 4.2352 28.4405 4.78112 26.9449 5.07709C25.7471 3.79929 24.0434 3.00342 22.1537 3.00342C18.5285 3.00342 15.589 5.94294 15.589 9.56619C15.589 10.0801 15.6469 10.582 15.7589 11.0619C10.304 10.788 5.46695 8.17448 2.22955 4.2032C1.66364 5.17103 1.34172 6.29878 1.34172 7.50255C1.34172 9.78009 2.50155 11.7898 4.26119 12.9655C3.18542 12.9295 2.17358 12.6336 1.28775 12.1416V12.2236C1.28775 15.403 3.55136 18.0564 6.55275 18.6604C6.00284 18.8084 5.423 18.8904 4.82311 18.8904C4.39922 18.8904 3.98926 18.8484 3.58734 18.7684C4.42311 21.3779 6.84672 23.2756 9.71819 23.3275C7.47257 25.0873 4.64114 26.133 1.56572 26.133C1.0358 26.133 0.513849 26.101 0 26.043C2.90546 27.9087 6.35477 28.9964 10.0621 28.9964C22.1379 28.9964 28.7386 18.9943 28.7386 10.3199L28.7166 9.47012C30.0064 8.55037 31.1221 7.3946 32 6.07883Z" fill="black"/>
</g>
<defs>
<clipPath id="clip0">
<rect width="32" height="32" fill="black"/>
</clipPath>
</defs>
</svg>
